<svg width="686" height="629" viewBox="0 0 686 629" fill="none" xmlns="http://www.w3.org/2000/svg">
<path d="M409.5 0.998387C379.5 3.19839 355.8 12.5984 332.3 31.4984L324 38.0984L317.3 34.0984C280.7 12.4984 236.5 11.9984 195.8 32.6984C175.9 42.7984 158.9 57.2984 147.9 73.6984C143.5 80.0984 136.7 93.2984 134.8 98.9984C134.4 100.098 131.3 101.098 125.2 102.298C109 105.398 88.5 113.498 74.5 122.298C40 143.898 13.1 181.398 4.5 219.798C-2.2 249.498 -0.2 279.998 10.3 307.998L13.9 317.398L11.5 321.898C4.8 335.298 0 355.398 0 370.598C0 386.798 4.8 409.898 11.3 424.898C22.3 450.198 47.6 475.198 75.2 487.898C85.3 492.598 102.4 498.398 111 500.098C114.3 500.698 116.9 501.598 116.8 501.898C114 507.898 107.5 525.898 105.4 533.598C102.9 542.498 102.6 545.198 102.6 559.998C102.5 575.698 102.7 576.798 105.4 583.998C112.6 603.298 120.5 612.198 137.9 620.898C156.8 630.498 183.5 630.498 203.8 620.998C219.4 613.698 237.9 598.398 249 583.498C255.2 575.198 257.1 573.698 293 546.798C313.6 531.298 336.7 514.098 344.2 508.398L357.9 498.098L368.2 501.098C402.1 510.798 431.4 512.898 456.8 507.498C492.7 499.898 518.7 480.698 536.4 448.598L541.7 438.998L556.6 438.598C584.8 437.998 607.6 430.898 630 415.898C656.6 398.098 676.5 369.998 682.6 341.498C686.4 323.498 686.2 301.198 682 285.998C678.1 272.098 668.1 254.998 656.6 242.698L651.3 236.998L653.7 230.198C655.1 226.498 657.3 218.798 658.8 212.998C661.1 203.798 661.4 200.498 661.5 185.998C661.5 173.698 661 167.298 659.7 160.998C654.5 136.698 644.9 118.198 628.6 101.098C605.8 77.2984 576.8 64.1984 543.2 62.6984L534.9 62.2984L529.3 54.8984C515.4 36.1984 496.2 20.9984 474.8 11.7984C463.7 6.99839 446.1 2.39839 436 1.59839C421.2 0.298387 419.4 0.298387 409.5 0.998387ZM433 53.4984C467.8 58.7984 493.9 82.3984 494 108.498C494 118.698 489 133.298 481.9 143.698C478.3 148.898 467.2 160.998 465.9 160.998C465.4 160.998 463.4 159.898 461.3 158.398C449.1 150.098 435 146.398 419.1 147.298C400.1 148.398 390.4 152.398 378.9 163.898C369.7 173.198 367.6 177.298 367.6 185.998C367.6 203.298 384.5 216.198 400.1 210.798C403.4 209.698 407.1 207.398 415.4 200.998C420.1 197.398 423.8 197.198 431.4 200.098C438.2 202.598 445.7 209.198 449.2 215.698C453 222.598 453.6 228.898 451.5 240.398C450.5 246.098 450 251.698 450.4 254.098C452.4 266.598 462.7 274.998 476 274.998C493.5 274.998 503.7 260.998 505.6 234.298C506.3 224.598 504.5 212.998 501 203.998L499.1 199.098L505.5 193.998C520.5 181.998 533.5 163.198 538 146.798C540.7 136.798 544 120.398 544 116.898C544 114.398 544.4 113.998 546.6 113.998C550.5 113.998 559.9 116.598 566.4 119.498C579.5 125.298 589.5 133.398 597.6 144.698C609.5 161.198 613 185.198 606.5 205.698L604 213.598L595.8 213.198C586 212.698 580.8 213.898 575.1 218.098C562.8 226.998 563 249.698 575.5 258.198C577.8 259.798 583.8 262.098 589.5 263.598C603.6 267.298 611.7 271.798 619.5 280.298C634.8 296.698 637.8 314.998 629.1 338.098C624.1 351.298 613.3 364.598 601 372.598C584.6 383.198 562.3 388.898 543.4 387.398L535.1 386.698L531.3 380.098C526.4 371.598 512.6 357.598 502.8 351.198C489.2 342.398 470.3 337.898 459.3 340.898C453.1 342.598 447 347.698 443.7 353.998C441.1 358.898 440.9 360.298 441.2 367.198C441.5 373.798 441.9 375.398 444.5 379.198C448.6 384.998 451.9 386.998 464.6 391.498C478.9 396.398 482.3 398.298 485.5 402.398C497.2 417.798 488 439.298 464.9 450.298C452.6 456.198 445.1 457.998 430.5 458.698C410.3 459.598 386.5 454.998 368.8 446.798C360.1 442.798 358.9 442.498 351 442.498C340.4 442.498 336.3 444.598 329.1 453.498C326.2 457.198 320.4 462.398 315.3 466.098C300.5 476.798 235 525.898 225.7 533.398C219.8 538.098 215.1 542.998 211.5 547.998C194.9 571.498 173.6 582.298 160.7 573.598C149.1 565.798 151.7 549.598 171.7 506.598C175.7 497.798 179.8 488.198 180.6 485.198C184.4 472.298 176.7 456.498 165.1 452.898C163.1 452.298 154.1 451.398 145 450.998C114.7 449.398 97.5 443.798 79.1 429.498C62.3 416.298 52 394.498 52 371.998C52 367.598 52.2 363.998 52.5 363.998C52.7 363.998 55.8 365.798 59.2 368.098C62.7 370.298 71.5 375.198 78.8 378.798C90.9 384.798 92.7 385.498 98.3 385.498C107 385.498 113.2 383.398 118.7 378.698C124.8 373.298 128 366.298 128 358.498C127.9 345.898 121 338.098 105.2 332.898C99.9 331.198 92.9 328.398 89.6 326.698C74.7 318.898 61.1 299.098 54.8 276.198C51.7 264.998 51.7 239.998 54.8 228.698C59.8 210.698 69.7 194.398 84.3 180.298C94.2 170.798 100.5 166.298 111.5 160.698C141.3 145.798 176.9 149.098 200.3 168.898C212.4 178.998 217.9 189.998 220.6 208.898C222.5 222.798 225.6 227.598 235 231.898C240.1 234.198 249.1 234.598 255.5 232.898C261.1 231.398 268.2 223.798 270.6 216.898C274.2 206.098 272.1 191.398 263.8 170.198C258.7 156.998 251.8 146.798 240.5 135.498C227.2 122.098 214.1 113.998 196.8 108.398C191.9 106.898 188 105.298 188 104.898C188 104.498 189.8 101.898 192 99.0984C197.7 91.8984 207.1 84.6984 217.5 79.4984C229.9 73.2984 239.9 70.7984 253 70.7984C271.7 70.6984 287.9 76.1984 306.9 88.8984C318.1 96.3984 321.6 97.9984 327.2 97.9984C334.3 97.8984 339.5 94.6984 352.5 82.1984C366.6 68.5984 376.3 62.2984 390.7 57.3984C405.8 52.2984 417.9 51.1984 433 53.4984Z" fill="black"/>
<path d="M152.7 249.398C146.5 251.098 141.1 255.498 138 261.598C135.9 265.598 135.5 267.898 135.5 274.498C135.5 283.298 136.9 286.998 142.4 292.798C146.8 297.598 151.2 299.598 164.7 302.998C188.1 308.898 202.5 319.098 210.6 335.498L214.5 343.398L214.4 355.398C214.3 362.098 214.1 371.798 213.9 376.998C213.5 387.898 214.6 391.298 220.5 397.798C227 404.998 238.4 407.398 248.3 403.598C256.3 400.598 263.3 390.498 265.5 378.898L266.1 375.398L276.8 373.598C291.6 371.098 304.2 366.898 319.5 359.498C337.3 350.798 347 344.198 357 333.998C368.4 322.398 372.3 315.698 372.8 307.098C373.1 301.198 372.8 299.798 369.8 293.998C367.1 288.698 365.5 286.898 361.2 284.298C353 279.498 344.2 278.898 336.5 282.698C334.9 283.598 328.8 288.798 323 294.498C307.4 309.698 296.6 315.898 275.8 321.498C262.6 324.998 262.9 325.098 259.5 317.298C252.3 300.698 236.4 281.698 221.4 271.698C204.9 260.798 185.7 252.798 168.4 249.398C159.5 247.698 159 247.698 152.7 249.398Z" fill="black"/>
</svg>
